REM DIRINDEX 1\2,1\3,1\4
REM DIRNAME cjc153,folder01,folder02,folder03
TITLE ""
FILE "Track33.mp3" MP3
  TRACK 01 AUDIO
    TITLE "0:"
    INDEX 01 00:00:00
  TRACK 02 AUDIO
    TITLE "4:cjc153_2027"
    INDEX 01 00:00:07
  TRACK 03 AUDIO
    TITLE "0:"
    INDEX 01 00:02:16
  TRACK 04 AUDIO
    TITLE "2:cjc153_2028"
    INDEX 01 00:03:00
  TRACK 05 AUDIO
    TITLE "0:"
    INDEX 01 00:04:23
  TRACK 06 AUDIO
    TITLE "3:cjc153_2029"
    INDEX 01 00:04:58
  TRACK 07 AUDIO
    TITLE "0:"
    INDEX 01 00:06:10
  TRACK 08 AUDIO
    TITLE "2:cjc153_2030"
    INDEX 01 00:06:55
  TRACK 09 AUDIO
    TITLE "0:"
    INDEX 01 00:07:70
  TRACK 10 AUDIO
    TITLE "3:cjc153_2031"
    INDEX 01 00:08:30
  TRACK 11 AUDIO
    TITLE "0:"
    INDEX 01 00:09:51
  TRACK 12 AUDIO
    TITLE "2:cjc153_2032"
    INDEX 01 00:10:23
  TRACK 13 AUDIO
    TITLE "0:"
    INDEX 01 00:11:25
  TRACK 14 AUDIO
    TITLE "3:cjc153_2033"
    INDEX 01 00:11:58
  TRACK 15 AUDIO
    TITLE "0:"
    INDEX 01 00:12:65
  TRACK 16 AUDIO
    TITLE "2:cjc153_2034"
    INDEX 01 00:13:35
  TRACK 17 AUDIO
    TITLE "0:"
    INDEX 01 00:14:41
  TRACK 18 AUDIO
    TITLE "3:cjc153_2035"
    INDEX 01 00:14:72
  TRACK 19 AUDIO
    TITLE "0:"
    INDEX 01 00:16:08
  TRACK 20 AUDIO
    TITLE "2:cjc153_2036"
    INDEX 01 00:16:53
  TRACK 21 AUDIO
    TITLE "0:"
    INDEX 01 00:17:70
  TRACK 22 AUDIO
    TITLE "3:cjc153_2037"
    INDEX 01 00:18:27
  TRACK 23 AUDIO
    TITLE "0:"
    INDEX 01 00:19:50
  TRACK 24 AUDIO
    TITLE "2:cjc153_2038"
    INDEX 01 00:20:20
  TRACK 25 AUDIO
    TITLE "0:"
    INDEX 01 00:21:19
  TRACK 26 AUDIO
    TITLE "3:cjc153_2039"
    INDEX 01 00:21:53
  TRACK 27 AUDIO
    TITLE "0:"
    INDEX 01 00:22:50
  TRACK 28 AUDIO
    TITLE "2:cjc153_2040"
    INDEX 01 00:23:22
  TRACK 29 AUDIO
    TITLE "0:"
    INDEX 01 00:24:35
  TRACK 30 AUDIO
    TITLE "3:cjc153_2041"
    INDEX 01 00:24:71
  TRACK 31 AUDIO
    TITLE "0:"
    INDEX 01 00:26:11
  TRACK 32 AUDIO
    TITLE "2:cjc153_2042"
    INDEX 01 00:26:56
  TRACK 33 AUDIO
    TITLE "0:"
    INDEX 01 00:27:59
  TRACK 34 AUDIO
    TITLE "3:cjc153_2043"
    INDEX 01 00:28:15
  TRACK 35 AUDIO
    TITLE "0:"
    INDEX 01 00:29:23
  TRACK 36 AUDIO
    TITLE "2:cjc153_2044"
    INDEX 01 00:29:68
  TRACK 37 AUDIO
    TITLE "0:"
    INDEX 01 00:30:71
  TRACK 38 AUDIO
    TITLE "3:cjc153_2045"
    INDEX 01 00:31:27
  TRACK 39 AUDIO
    TITLE "0:"
    INDEX 01 00:32:35
  TRACK 40 AUDIO
    TITLE "2:cjc153_2046"
    INDEX 01 00:33:05
  TRACK 41 AUDIO
    TITLE "0:"
    INDEX 01 00:34:14
  TRACK 42 AUDIO
    TITLE "3:cjc153_2047"
    INDEX 01 00:34:47
  TRACK 43 AUDIO
    TITLE "0:"
    INDEX 01 00:35:63
  TRACK 44 AUDIO
    TITLE "2:cjc153_2048"
    INDEX 01 00:36:31
  TRACK 45 AUDIO
    TITLE "0:"
    INDEX 01 00:37:40
  TRACK 46 AUDIO
    TITLE "3:cjc153_2049"
    INDEX 01 00:37:73
  TRACK 47 AUDIO
    TITLE "0:"
    INDEX 01 00:39:13
  TRACK 48 AUDIO
    TITLE "2:cjc153_2050"
    INDEX 01 00:39:60
  TRACK 49 AUDIO
    TITLE "0:"
    INDEX 01 00:41:20
  TRACK 50 AUDIO
    TITLE "3:cjc153_2051"
    INDEX 01 00:41:53
  TRACK 51 AUDIO
    TITLE "0:"
    INDEX 01 00:43:13
  TRACK 52 AUDIO
    TITLE "2:cjc153_2052"
    INDEX 01 00:43:60
  TRACK 53 AUDIO
    TITLE "0:"
    INDEX 01 00:44:73
  TRACK 54 AUDIO
    TITLE "3:cjc153_2053"
    INDEX 01 00:45:33
  TRACK 55 AUDIO
    TITLE "0:"
    INDEX 01 00:46:54
  TRACK 56 AUDIO
    TITLE "2:cjc153_2054"
    INDEX 01 00:47:23
  TRACK 57 AUDIO
    TITLE "0:"
    INDEX 01 00:48:44
  TRACK 58 AUDIO
    TITLE "3:cjc153_2055"
    INDEX 01 00:49:00
  TRACK 59 AUDIO
    TITLE "0:"
    INDEX 01 00:50:23
  TRACK 60 AUDIO
    TITLE "2:cjc153_2056"
    INDEX 01 00:50:68
  TRACK 61 AUDIO
    TITLE "0:"
    INDEX 01 00:51:73
  TRACK 62 AUDIO
    TITLE "3:cjc153_2057"
    INDEX 01 00:52:34
  TRACK 63 AUDIO
    TITLE "0:"
    INDEX 01 00:53:47
  TRACK 64 AUDIO
    TITLE "2:cjc153_2058"
    INDEX 01 00:54:19
  TRACK 65 AUDIO
    TITLE "0:"
    INDEX 01 00:55:38
  TRACK 66 AUDIO
    TITLE "3:cjc153_2059"
    INDEX 01 00:55:71
  TRACK 67 AUDIO
    TITLE "0:"
    INDEX 01 00:57:17
  TRACK 68 AUDIO
    TITLE "2:cjc153_2060"
    INDEX 01 00:57:60
  TRACK 69 AUDIO
    TITLE "0:"
    INDEX 01 00:59:00
  TRACK 70 AUDIO
    TITLE "3:cjc153_2061"
    INDEX 01 00:59:32
  TRACK 71 AUDIO
    TITLE "0:"
    INDEX 01 01:00:53
  TRACK 72 AUDIO
    TITLE "2:cjc153_2062"
    INDEX 01 01:01:25
  TRACK 73 AUDIO
    TITLE "0:"
    INDEX 01 01:02:54
  TRACK 74 AUDIO
    TITLE "3:cjc153_2063"
    INDEX 01 01:03:10
  TRACK 75 AUDIO
    TITLE "0:"
    INDEX 01 01:04:48
  TRACK 76 AUDIO
    TITLE "2:cjc153_2064"
    INDEX 01 01:05:17
  TRACK 77 AUDIO
    TITLE "0:"
    INDEX 01 01:06:10
  TRACK 78 AUDIO
    TITLE "3:cjc153_2065"
    INDEX 01 01:06:43
  TRACK 79 AUDIO
    TITLE "0:"
    INDEX 01 01:07:41
  TRACK 80 AUDIO
    TITLE "2:cjc153_2066"
    INDEX 01 01:08:13
  TRACK 81 AUDIO
    TITLE "0:"
    INDEX 01 01:09:16
  TRACK 82 AUDIO
    TITLE "3:cjc153_2067"
    INDEX 01 01:09:48
  TRACK 83 AUDIO
    TITLE "0:"
    INDEX 01 01:10:59
  TRACK 84 AUDIO
    TITLE "2:cjc153_2068"
    INDEX 01 01:11:31
  TRACK 85 AUDIO
    TITLE "0:"
    INDEX 01 01:12:46
  TRACK 86 AUDIO
    TITLE "3:cjc153_2069"
    INDEX 01 01:13:04
  TRACK 87 AUDIO
    TITLE "0:"
    INDEX 01 01:14:29
  TRACK 88 AUDIO
    TITLE "2:cjc153_2070"
    INDEX 01 01:15:03
  TRACK 89 AUDIO
    TITLE "0:"
    INDEX 01 01:16:07
  TRACK 90 AUDIO
    TITLE "3:cjc153_2071"
    INDEX 01 01:16:40
  TRACK 91 AUDIO
    TITLE "0:"
    INDEX 01 01:17:49
  TRACK 92 AUDIO
    TITLE "2:cjc153_2072"
    INDEX 01 01:18:19
  TRACK 93 AUDIO
    TITLE "0:"
    INDEX 01 01:19:23
  TRACK 94 AUDIO
    TITLE "3:cjc153_2073"
    INDEX 01 01:19:52
  TRACK 95 AUDIO
    TITLE "0:"
    INDEX 01 01:20:59
  TRACK 96 AUDIO
    TITLE "2:cjc153_2074"
    INDEX 01 01:21:27
  TRACK 97 AUDIO
    TITLE "0:"
    INDEX 01 01:22:35
  TRACK 98 AUDIO
    TITLE "3:cjc153_2075"
    INDEX 01 01:22:68
  TRACK 99 AUDIO
    TITLE "0:"
    INDEX 01 01:24:02
  TRACK 100 AUDIO
    TITLE "2:cjc153_2076"
    INDEX 01 01:24:47
  TRACK 101 AUDIO
    TITLE "0:"
    INDEX 01 01:25:43
  TRACK 102 AUDIO
    TITLE "3:cjc153_2077"
    INDEX 01 01:26:05
  TRACK 103 AUDIO
    TITLE "0:"
    INDEX 01 01:27:08
